#!OML:ASF F:\VICON\USERDATA\INSTALL\rory3\rory3.ASF
:FULLY-SPECIFIED
:DEGREES
2919
root 0.321711 16.1917 -0.571566 1.7481 -4.49727 -0.415239
lowerback 9.51603 -3.06717 -3.73067
upperback -3.69043 -4.4962 1.34811
thorax -8.88122 -1.92492 4.28695
lowerneck -9.28419 -1.44819 -10.6239
upperneck 6.49877 -3.99309 34.7164
head 4.64258 -0.749834 13.5714
rclavicle 6.29899e-015 2.5842e-015
rhumerus -7.45497 -19.6172 -2.62639
rradius 87.0646
rwrist -57.6728
rhand 23.3192 7.19458
rfingers 7.12502
rthumb 47.6137 -15.1965
lclavicle 6.29899e-015 2.5842e-015
lhumerus 67.3288 -58.2961 25.592
lradius 98.5683
lwrist 66.7769
lhand 12.8903 34.1452
lfingers 7.12502
lthumb 37.8623 59.9818
rfemur -5.74265 14.4332 16.4774
rtibia 15.8887
rfoot -9.25662 -12.8306
rtoes -3.61503
lfemur 4.07181 -8.06261 -16.4842
ltibia 1.43125e-014
lfoot -3.54915 11.2452
ltoes -9.72912
2920
root 0.321889 16.1934 -0.573736 1.81851 -4.56341 -0.286027
lowerback 9.47409 -3.04589 -3.79839
upperback -3.70502 -4.47416 1.36335
thorax -8.86874 -1.91019 4.33523
lowerneck -9.1787 -1.49311 -10.6332
upperneck 6.28415 -3.99615 34.6764
head 4.56061 -0.777987 13.5414
rclavicle -5.80669e-015 -5.26779e-015
rhumerus -7.10947 -20.9968 -2.89586
rradius 86.7628
rwrist -58.8581
rhand 22.6557 7.04306
rfingers 7.12502
rthumb 47.0006 -15.6229
lclavicle -5.80669e-015 -5.26779e-015
lhumerus 67.5615 -57.9237 25.9922
lradius 98.9172
lwrist 67.4226
lhand 13.3575 34.0332
lfingers 7.12502
lthumb 38.3034 59.7492
rfemur -5.93678 14.4936 16.3095
rtibia 16.021
rfoot -9.23447 -12.8702
rtoes -3.99587
lfemur 3.98583 -7.9941 -16.6187
ltibia 2.38542e-015
lfoot -3.54829 11.2487
ltoes -10.1052
2921
root 0.324083 16.1937 -0.574175 1.86695 -4.59614 -0.0421415
lowerback 9.45251 -3.05233 -3.9099
upperback -3.74096 -4.50006 1.33384
thorax -8.88736 -1.91612 4.37031
lowerneck -9.10822 -1.53356 -10.6821
upperneck 6.14921 -4.0133 34.6698
head 4.51386 -0.804367 13.5396
rclavicle 2.7423e-014 -1.2921e-015
rhumerus -6.64759 -22.2485 -3.21244
rradius 86.3225
rwrist -59.7444
rhand 21.3894 7.51911
rfingers 7.12502
rthumb 45.8271 -15.6471
lclavicle 2.7423e-014 -1.2921e-015
lhumerus 67.6558 -57.5149 26.5446
lradius 99.2123
lwrist 68.285
lhand 14.0126 33.8654
lfingers 7.12502
lthumb 38.9214 59.4079
rfemur -6.11257 14.4628 16.0083
rtibia 16.1759
rfoot -9.23949 -12.8167
rtoes -4.40777
lfemur 3.91448 -7.96337 -16.8903
ltibia -7.15625e-015
lfoot -3.56296 11.2476
ltoes -10.3294
2922
root 0.326537 16.1938 -0.575126 1.85834 -4.64309 0.163034
lowerback 9.45243 -3.0495 -3.9645
upperback -3.6779 -4.50663 1.27711
thorax -8.81839 -1.92149 4.338
lowerneck -9.33631 -1.62326 -10.6135
upperneck 6.07278 -4.13111 34.6605
head 4.56844 -0.847518 13.5112
rclavicle 2.27143e-014 7.85199e-015
rhumerus -6.15145 -23.5945 -3.6129
rradius 85.7813
rwrist -60.4704
rhand 19.4818 8.28217
rfingers 7.12502
rthumb 44.0521 -15.5813
lclavicle 2.27143e-014 7.85199e-015
lhumerus 68.0722 -56.9535 26.8121
lradius 99.4067
lwrist 69.1257
lhand 15.1984 33.6003
lfingers 7.12502
lthumb 40.0383 58.8148
rfemur -6.21248 14.5106 15.7633
rtibia 16.3197
rfoot -9.31138 -12.7949
rtoes -4.36976
lfemur 3.91238 -7.92089 -17.1249
ltibia 6.36111e-015
lfoot -3.61189 11.2506
ltoes -10.0856
2923
root 0.32805 16.1946 -0.577859 1.89723 -4.67867 0.165342
lowerback 9.40168 -3.03613 -3.83078
upperback -3.59957 -4.46924 1.25183
thorax -8.71828 -1.91668 4.22267
lowerneck -9.527 -1.72104 -10.467
upperneck 5.95569 -4.26342 34.6679
head 4.60715 -0.901031 13.469
rclavicle -2.66806e-014 6.85807e-015
rhumerus -5.67132 -24.9648 -4.0503
rradius 85.1263
rwrist -60.9682
rhand 17.3577 8.95926
rfingers 7.12502
rthumb 42.0661 -15.6086
lclavicle -2.66806e-014 6.85807e-015
lhumerus 68.6075 -56.3668 27.0384
lradius 99.5657
lwrist 70.059
lhand 15.8993 33.579
lfingers 7.12502
lthumb 40.6975 58.5907
rfemur -6.30376 14.5438 15.7447
rtibia 16.3917
rfoot -9.33992 -12.7915
rtoes -4.25405
lfemur 3.85791 -7.8821 -17.1214
ltibia -3.97569e-015
lfoot -3.57836 11.2369
ltoes -9.90492
2924
root 0.33024 16.1947 -0.579475 1.9422 -4.71438 0.164983
lowerback 9.38418 -3.03758 -3.73596
upperback -3.61146 -4.45574 1.28412
thorax -8.72643 -1.91405 4.20132
lowerneck -9.43834 -1.75176 -10.4584
upperneck 5.79641 -4.2765 34.7381
head 4.55149 -0.924939 13.4885
rclavicle 3.59334e-014 -2.88238e-015
rhumerus -5.00514 -26.3256 -4.52041
rradius 84.3282
rwrist -61.5164
rhand 15.6449 9.14013
rfingers 7.12502
rthumb 40.4583 -15.946
lclavicle 3.59334e-014 -2.88238e-015
lhumerus 68.8663 -55.9339 27.5571
lradius 99.678
lwrist 71.2537
lhand 15.6363 33.7492
lfingers 7.12502
lthumb 40.4503 58.8378
rfemur -6.3474 14.5906 15.7236
rtibia 16.4089
rfoot -9.40578 -12.8007
rtoes -4.84347
lfemur 3.81188 -7.84279 -17.1168
ltibia 7.95139e-016
lfoot -3.5776 11.2175
ltoes -9.75907
2925
root 0.332088 16.1947 -0.580838 1.96891 -4.78112 0.0850592
lowerback 9.45281 -3.03683 -3.6658
upperback -3.69108 -4.4382 1.42516
thorax -8.84896 -1.89938 4.31913
lowerneck -9.2356 -1.76797 -10.566
upperneck 5.70183 -4.26786 34.7751
head 4.48564 -0.947044 13.522
rclavicle 2.83796e-014 -4.77083e-015
rhumerus -4.05709 -27.6914 -5.05373
rradius 83.3682
rwrist -62.5498
rhand 14.5264 8.88568
rfingers 7.12502
rthumb 39.4056 -16.5169
lclavicle 2.83796e-014 -4.77083e-015
lhumerus 68.9968 -55.6057 28.2989
lradius 99.5788
lwrist 72.1275
lhand 15.5995 33.4149
lfingers 7.12502
lthumb 40.4157 58.5142
rfemur -6.37031 14.627 15.8024
rtibia 16.3993
rfoot -9.39044 -12.7915
rtoes -5.64829
lfemur 3.80525 -7.77116 -17.0323
ltibia 3.97569e-015
lfoot -3.57135 11.2155
ltoes -9.61017
2926
root 0.334541 16.1966 -0.582442 1.94849 -4.8688 0.0463092
lowerback 9.57005 -3.09325 -3.56553
upperback -3.78716 -4.49864 1.52147
thorax -9.01637 -1.92373 4.38945
lowerneck -9.0777 -1.7473 -10.6493
upperneck 5.80274 -4.26042 34.7734
head 4.48109 -0.952387 13.5433
rclavicle 3.29299e-014 7.55382e-015
rhumerus -2.98429 -29.0322 -5.75298
rradius 82.4051
rwrist -63.9461
rhand 13.801 8.71099
rfingers 7.12502
rthumb 38.7219 -16.8881
lclavicle 3.29299e-014 7.55382e-015
lhumerus 68.9164 -55.2808 29.1353
lradius 99.2759
lwrist 72.3533
lhand 16.0792 32.7315
lfingers 7.12502
lthumb 40.8666 57.6902
rfemur -6.37424 14.6925 15.8379
rtibia 16.3738
rfoot -9.31825 -12.7885
rtoes -5.12137
lfemur 3.84543 -7.68218 -17.0027
ltibia -7.95139e-016
lfoot -3.58867 11.2106
ltoes -9.67685
2927
root 0.336466 16.1982 -0.585534 1.96004 -4.95331 0.134449
lowerback 9.63359 -3.15675 -3.49196
upperback -3.8564 -4.58119 1.4788
thorax -9.1304 -1.96422 4.32448
lowerneck -9.12621 -1.76639 -10.6135
upperneck 6.03625 -4.36925 34.8196
head 4.58615 -0.98276 13.5615
rclavicle -5.55976e-014 -1.0138e-014
rhumerus -2.32905 -30.182 -6.22615
rradius 81.6145
rwrist -65.0665
rhand 12.8068 8.83356
rfingers 7.12502
rthumb 37.7834 -17.0243
lclavicle -5.55976e-014 -1.0138e-014
lhumerus 68.9579 -54.9173 29.7423
lradius 98.9415
lwrist 72.714
lhand 16.3574 32.1076
lfingers 7.12502
lthumb 41.1278 56.9833
rfemur -6.42763 14.7161 15.7216
rtibia 16.3467
rfoot -9.24618 -12.7745
rtoes -4.83264
lfemur 3.82171 -7.59828 -17.1019
ltibia -9.54166e-015
lfoot -3.62196 11.2194
ltoes -9.56466
